<?xml version="1.0" standalone="no"?><!DOCTYPE svg PUBLIC "-//W3C//DTD SVG 1.1//EN" "http://www.w3.org/Graphics/SVG/1.1/DTD/svg11.dtd"><svg t="1552358520158" class="icon" style="" viewBox="0 0 1024 1024" version="1.1" xmlns="http://www.w3.org/2000/svg" p-id="34803" xmlns:xlink="http://www.w3.org/1999/xlink" width="32" height="32"><defs><style type="text/css"></style></defs><path d="M170.666667 298.666667m-42.666667 0a42.666667 42.666667 0 1 0 85.333333 0 42.666667 42.666667 0 1 0-85.333333 0Z" p-id="34804"></path><path d="M170.666667 512m-42.666667 0a42.666667 42.666667 0 1 0 85.333333 0 42.666667 42.666667 0 1 0-85.333333 0Z" p-id="34805"></path><path d="M170.666667 725.333333m-42.666667 0a42.666667 42.666667 0 1 0 85.333333 0 42.666667 42.666667 0 1 0-85.333333 0Z" p-id="34806"></path><path d="M298.666667 469.333333m40.106666 0l517.12 0q40.106667 0 40.106667 40.106667l0 5.12q0 40.106667-40.106667 40.106667l-517.12 0q-40.106667 0-40.106666-40.106667l0-5.12q0-40.106667 40.106666-40.106667Z" p-id="34807"></path><path d="M298.666667 682.666667m40.106666 0l517.12 0q40.106667 0 40.106667 40.106666l0 5.12q0 40.106667-40.106667 40.106667l-517.12 0q-40.106667 0-40.106666-40.106667l0-5.12q0-40.106667 40.106666-40.106666Z" p-id="34808"></path><path d="M298.666667 256m40.106666 0l517.12 0q40.106667 0 40.106667 40.106667l0 5.12q0 40.106667-40.106667 40.106666l-517.12 0q-40.106667 0-40.106666-40.106666l0-5.12q0-40.106667 40.106666-40.106667Z" p-id="34809"></path></svg>